<svg width="17" height="17" viewBox="0 0 17 17" fill="none" xmlns="http://www.w3.org/2000/svg">
<path d="M8.37679 4.3314C6.10662 4.3314 4.2755 6.16293 4.2755 8.43359C4.2755 10.7043 6.10662 12.5358 8.37679 12.5358C10.6469 12.5358 12.4781 10.7043 12.4781 8.43359C12.4781 6.16293 10.6469 4.3314 8.37679 4.3314ZM8.37679 11.1006C6.90975 11.1006 5.71042 9.90453 5.71042 8.43359C5.71042 6.96266 6.90618 5.76663 8.37679 5.76663C9.84739 5.76663 11.0432 6.96266 11.0432 8.43359C11.0432 9.90453 9.84382 11.1006 8.37679 11.1006ZM13.6024 4.16359C13.6024 4.69556 13.1741 5.12042 12.6458 5.12042C12.114 5.12042 11.6892 4.69199 11.6892 4.16359C11.6892 3.6352 12.1176 3.20677 12.6458 3.20677C13.1741 3.20677 13.6024 3.6352 13.6024 4.16359ZM16.3188 5.1347C16.2581 3.85298 15.9654 2.71765 15.0266 1.78225C14.0915 0.846848 12.9564 0.554089 11.6749 0.489825C10.3543 0.41485 6.39575 0.41485 5.07506 0.489825C3.7972 0.550519 2.66212 0.843278 1.72335 1.77868C0.784593 2.71408 0.495468 3.84941 0.431219 5.13113C0.35626 6.45211 0.35626 10.4115 0.431219 11.7325C0.491899 13.0142 0.784593 14.1495 1.72335 15.0849C2.66212 16.0203 3.79363 16.3131 5.07506 16.3774C6.39575 16.4523 10.3543 16.4523 11.6749 16.3774C12.9564 16.3167 14.0915 16.0239 15.0266 15.0849C15.9618 14.1495 16.2545 13.0142 16.3188 11.7325C16.3937 10.4115 16.3937 6.45568 16.3188 5.1347ZM14.6126 13.1499C14.3342 13.8496 13.7952 14.3887 13.092 14.6708C12.039 15.0885 9.54042 14.9921 8.37679 14.9921C7.21315 14.9921 4.71097 15.0849 3.66156 14.6708C2.96195 14.3923 2.42296 13.8532 2.14098 13.1499C1.72335 12.0967 1.81973 9.59749 1.81973 8.43359C1.81973 7.2697 1.72692 4.76696 2.14098 3.71732C2.41939 3.01755 2.95838 2.47844 3.66156 2.1964C4.71454 1.77868 7.21315 1.87508 8.37679 1.87508C9.54042 1.87508 12.0426 1.78225 13.092 2.1964C13.7916 2.47487 14.3306 3.01398 14.6126 3.71732C15.0302 4.77053 14.9338 7.2697 14.9338 8.43359C14.9338 9.59749 15.0302 12.1002 14.6126 13.1499Z" fill="white"/>
</svg>
