<svg width="18" height="21" viewBox="0 0 18 21" fill="none" xmlns="http://www.w3.org/2000/svg">
<path d="M15 10.4336C15 14.9336 9 19.4336 9 19.4336C9 19.4336 3 14.9336 3 10.4336C3 8.84229 3.63214 7.31617 4.75736 6.19095C5.88258 5.06573 7.4087 4.43359 9 4.43359C10.5913 4.43359 12.1174 5.06573 13.2426 6.19095C14.3679 7.31617 15 8.84229 15 10.4336Z" stroke="white" stroke-width="0.791667" stroke-linecap="round" stroke-linejoin="round"/>
<path d="M9 12.6836C10.2426 12.6836 11.25 11.6762 11.25 10.4336C11.25 9.19095 10.2426 8.18359 9 8.18359C7.75736 8.18359 6.75 9.19095 6.75 10.4336C6.75 11.6762 7.75736 12.6836 9 12.6836Z" stroke="white" stroke-width="0.791667" stroke-linecap="round" stroke-linejoin="round"/>
</svg>
