<svg width="18" height="21" viewBox="0 0 18 21" fill="none" xmlns="http://www.w3.org/2000/svg">
<path d="M16.5001 15.6237V17.8737C16.5009 18.0825 16.4581 18.2893 16.3745 18.4807C16.2908 18.6721 16.168 18.8439 16.0141 18.9851C15.8602 19.1263 15.6785 19.2338 15.4806 19.3007C15.2828 19.3676 15.0731 19.3925 14.8651 19.3737C12.5572 19.1229 10.3403 18.3343 8.39257 17.0712C6.58044 15.9197 5.04407 14.3833 3.89257 12.5712C2.62506 10.6146 1.83625 8.38691 1.59007 6.06867C1.57133 5.86127 1.59598 5.65224 1.66245 5.45488C1.72892 5.25753 1.83575 5.07618 1.97615 4.92238C2.11654 4.76858 2.28743 4.6457 2.47792 4.56156C2.6684 4.47742 2.87433 4.43386 3.08257 4.43367H5.33257C5.69655 4.43008 6.04942 4.55898 6.32539 4.79632C6.60137 5.03366 6.78163 5.36325 6.83257 5.72367C6.92754 6.44372 7.10366 7.15071 7.35757 7.83117C7.45848 8.09961 7.48032 8.39135 7.4205 8.67183C7.36069 8.9523 7.22172 9.20975 7.02007 9.41367L6.06757 10.3662C7.13524 12.2438 8.68991 13.7985 10.5676 14.8662L11.5201 13.9137C11.724 13.712 11.9814 13.5731 12.2619 13.5132C12.5424 13.4534 12.8341 13.4753 13.1026 13.5762C13.783 13.8301 14.49 14.0062 15.2101 14.1012C15.5744 14.1526 15.9071 14.3361 16.145 14.6168C16.3828 14.8975 16.5092 15.2558 16.5001 15.6237Z" stroke="white" stroke-width="0.75" stroke-linecap="round" stroke-linejoin="round"/>
</svg>
