<svg width="15" height="17" viewBox="0 0 15 17" fill="none" xmlns="http://www.w3.org/2000/svg">
<path d="M14.375 6.99361C12.9987 6.99656 11.6563 6.56691 10.5375 5.76537V11.3534C10.5372 12.3883 10.2209 13.3985 9.63098 14.2488C9.04105 15.0991 8.20559 15.749 7.23634 16.1116C6.26708 16.4741 5.21024 16.5321 4.20717 16.2777C3.20409 16.0232 2.30259 15.4686 1.62325 14.6879C0.9439 13.9072 0.519092 12.9377 0.405636 11.909C0.29218 10.8803 0.495485 9.84148 0.988362 8.93147C1.48124 8.02147 2.24019 7.28366 3.16371 6.81672C4.08723 6.34978 5.13129 6.17597 6.15625 6.31855V9.1282C5.68759 8.98065 5.18429 8.98497 4.71822 9.14053C4.25215 9.2961 3.84714 9.59496 3.56103 9.99444C3.27492 10.3939 3.12232 10.8736 3.12504 11.365C3.12776 11.8564 3.28564 12.3343 3.57615 12.7306C3.86667 13.1269 4.27495 13.4213 4.74271 13.5717C5.21047 13.7221 5.71379 13.7208 6.18079 13.5681C6.6478 13.4154 7.05462 13.119 7.34316 12.7213C7.63171 12.3235 7.78722 11.8448 7.7875 11.3534V0.433594H10.5375C10.5359 0.666199 10.5558 0.898453 10.5969 1.12741C10.6925 1.63778 10.8912 2.12327 11.1808 2.55424C11.4704 2.9852 11.8449 3.35258 12.2812 3.63391C12.9024 4.04421 13.6306 4.26268 14.375 4.26209V6.99361Z" fill="white"/>
</svg>
