<svg width="24" height="24" viewBox="0 0 24 24" fill="none" xmlns="http://www.w3.org/2000/svg">
<path d="M8.00701 2.385C6.57839 2.77872 5.15948 3.20685 3.75151 3.669C3.62294 3.71065 3.50866 3.78756 3.42167 3.89099C3.33469 3.99442 3.2785 4.1202 3.25951 4.254C2.42851 10.4895 4.34851 15.039 6.63901 18.036C7.60878 19.3176 8.76512 20.4466 10.0695 21.3855C10.5885 21.7515 11.0475 22.0155 11.409 22.185C11.589 22.2705 11.736 22.3275 11.8485 22.362C11.8977 22.3793 11.9484 22.3918 12 22.3995C12.051 22.3912 12.1011 22.3787 12.15 22.362C12.264 22.3275 12.411 22.2705 12.591 22.185C12.951 22.0155 13.4115 21.75 13.9305 21.3855C15.2349 20.4466 16.3912 19.3176 17.361 18.036C19.6515 15.0405 21.5715 10.4895 20.7405 4.254C20.7217 4.12014 20.6656 3.99427 20.5786 3.89082C20.4915 3.78736 20.3772 3.71049 20.2485 3.669C19.272 3.3495 17.6235 2.829 15.993 2.3865C14.328 1.935 12.7965 1.6005 12 1.6005C11.205 1.6005 9.67201 1.935 8.00701 2.3865V2.385ZM7.60801 0.84C9.23551 0.3975 10.965 0 12 0C13.035 0 14.7645 0.3975 16.392 0.84C18.057 1.29 19.7355 1.8225 20.7225 2.145C21.1352 2.28128 21.501 2.5312 21.778 2.86605C22.055 3.20091 22.232 3.60711 22.2885 4.038C23.1825 10.7535 21.108 15.7305 18.591 19.023C17.5237 20.4315 16.251 21.6718 14.8155 22.7025C14.3191 23.0592 13.7932 23.3728 13.2435 23.64C12.8235 23.838 12.372 24 12 24C11.628 24 11.178 23.838 10.7565 23.64C10.2068 23.3728 9.68087 23.0592 9.18451 22.7025C7.74905 21.6717 6.47638 20.4314 5.40901 19.023C2.89201 15.7305 0.817508 10.7535 1.71151 4.038C1.76804 3.60711 1.94497 3.20091 2.22198 2.86605C2.49899 2.5312 2.86485 2.28128 3.27751 2.145C4.7103 1.67521 6.15422 1.24009 7.60801 0.84Z" fill="white"/>
<path d="M16.281 7.71839C16.3508 7.78806 16.4062 7.87082 16.444 7.96194C16.4818 8.05305 16.5013 8.15074 16.5013 8.24939C16.5013 8.34804 16.4818 8.44572 16.444 8.53684C16.4062 8.62796 16.3508 8.71072 16.281 8.78039L11.781 13.2804C11.7113 13.3502 11.6285 13.4056 11.5374 13.4435C11.4463 13.4813 11.3486 13.5007 11.25 13.5007C11.1513 13.5007 11.0536 13.4813 10.9625 13.4435C10.8714 13.4056 10.7886 13.3502 10.719 13.2804L8.46897 11.0304C8.39924 10.9607 8.34392 10.8779 8.30619 10.7868C8.26845 10.6957 8.24902 10.598 8.24902 10.4994C8.24902 10.4008 8.26845 10.3031 8.30619 10.212C8.34392 10.1209 8.39924 10.0381 8.46897 9.96839C8.5387 9.89866 8.62149 9.84334 8.7126 9.8056C8.8037 9.76786 8.90136 9.74844 8.99997 9.74844C9.09859 9.74844 9.19624 9.76786 9.28735 9.8056C9.37846 9.84334 9.46124 9.89866 9.53097 9.96839L11.25 11.6889L15.219 7.71839C15.2886 7.64854 15.3714 7.59313 15.4625 7.55532C15.5536 7.51751 15.6513 7.49805 15.75 7.49805C15.8486 7.49805 15.9463 7.51751 16.0374 7.55532C16.1285 7.59313 16.2113 7.64854 16.281 7.71839Z" fill="white"/>
</svg>
