<svg width="17" height="17" viewBox="0 0 17 17" fill="none" xmlns="http://www.w3.org/2000/svg">
<path d="M13.9786 2.75859C12.4821 1.25859 10.4893 0.433594 8.37143 0.433594C4 0.433594 0.442857 3.99074 0.442857 8.36217C0.442857 9.75859 0.807143 11.1229 1.5 12.3265L0.375 16.4336L4.57857 15.33C5.73571 15.9622 7.03929 16.2943 8.36786 16.2943H8.37143C12.7393 16.2943 16.375 12.7372 16.375 8.36574C16.375 6.24788 15.475 4.25859 13.9786 2.75859ZM8.37143 14.9586C7.18571 14.9586 6.025 14.6407 5.01429 14.0407L4.775 13.8979L2.28214 14.5515L2.94643 12.1193L2.78929 11.8693C2.12857 10.8193 1.78214 9.60859 1.78214 8.36217C1.78214 4.73002 4.73929 1.77288 8.375 1.77288C10.1357 1.77288 11.7893 2.45859 13.0321 3.70502C14.275 4.95145 15.0393 6.60502 15.0357 8.36574C15.0357 12.0015 12.0036 14.9586 8.37143 14.9586ZM11.9857 10.0229C11.7893 9.92288 10.8143 9.44431 10.6321 9.38002C10.45 9.31217 10.3179 9.28002 10.1857 9.48002C10.0536 9.68002 9.675 10.1229 9.55714 10.2586C9.44286 10.3907 9.325 10.4086 9.12857 10.3086C7.96429 9.72645 7.2 9.26931 6.43214 7.95145C6.22857 7.60145 6.63571 7.62645 7.01429 6.86931C7.07857 6.73717 7.04643 6.62288 6.99643 6.52288C6.94643 6.42288 6.55 5.44788 6.38571 5.05145C6.225 4.66574 6.06071 4.71931 5.93929 4.71217C5.825 4.70502 5.69286 4.70502 5.56071 4.70502C5.42857 4.70502 5.21429 4.75502 5.03214 4.95145C4.85 5.15145 4.33929 5.63002 4.33929 6.60502C4.33929 7.58002 5.05 8.52288 5.14643 8.65502C5.24643 8.78717 6.54286 10.7872 8.53214 11.6479C9.78929 12.1907 10.2821 12.2372 10.9107 12.1443C11.2929 12.0872 12.0821 11.6657 12.2464 11.2015C12.4107 10.7372 12.4107 10.3407 12.3607 10.2586C12.3143 10.1693 12.1821 10.1193 11.9857 10.0229Z" fill="white"/>
</svg>
