<svg width="2208" height="749" viewBox="0 0 2208 749" fill="none" xmlns="http://www.w3.org/2000/svg">
<g clip-path="url(#clip0_129_152)">
<path d="M271 337.3C271 337.3 367.3 306 366.8 187C366.4 83.9 296.6 23 161.1 23H102.69L1.7 135.5H185.64C213.94 136.1 247.34 138 247.34 189.1C247.34 239.7 209.44 238.2 180.04 239C162.04 239.5 127.6 238.7 127.6 238.7V167.41H0V510.3H127.6V363.1L273.36 510.3L432.67 510.37L271 337.3Z" fill="white"/>
<path d="M639.35 401.24C612.73 401.24 586.709 393.347 564.576 378.558C542.443 363.769 525.192 342.749 515.005 318.155C504.818 293.562 502.153 266.501 507.346 240.393C512.539 214.285 525.358 190.303 544.18 171.481C563.003 152.658 586.985 139.839 613.093 134.646C639.201 129.453 666.262 132.118 690.855 142.305C715.448 152.492 736.468 169.743 751.257 191.876C766.046 214.009 773.94 240.031 773.94 266.65C773.932 302.343 759.749 336.572 734.511 361.811C709.272 387.05 675.043 401.232 639.35 401.24ZM639.35 16.1201C501 16.1201 388.91 128.2 388.91 266.56C388.91 404.92 501 517 639.35 517C777.7 517 889.79 404.81 889.79 266.56C889.79 128.31 777.71 16.1201 639.35 16.1201Z" fill="white"/>
<path d="M1112.86 23C1106.79 23 1100.37 23 1094.51 23.05V23H1021.65L921.19 135.06V510.3H1048.56V257.11H1048.64V135.33C1048.64 135.33 1067.71 135.33 1085.51 135.53V135.44H1109.66C1165.57 135.44 1249.66 147.01 1249.66 269.37C1249.66 385.92 1164.24 397 1109.66 397C1100.36 397 1087.66 397.05 1080.78 397V510.1C1088.58 510.16 1101.35 510.24 1112.78 510.24C1227.24 510.24 1366.17 473.57 1366.17 266.84C1366.25 61.73 1227.76 23 1112.86 23Z" fill="white"/>
<path d="M1396.66 146.01V510.3L1524.2 510.24V3.91992L1396.66 146.01Z" fill="white"/>
<path d="M2187.5 84.1001C2183.33 88.2847 2178.37 91.6049 2172.92 93.8704C2167.46 96.1358 2161.61 97.302 2155.7 97.302C2149.79 97.302 2143.94 96.1358 2138.48 93.8704C2133.03 91.6049 2128.07 88.2847 2123.9 84.1001C2119.68 79.9245 2116.35 74.935 2114.12 69.4343C2111.88 63.9336 2110.79 58.0363 2110.9 52.1001C2110.82 46.1886 2111.93 40.3216 2114.19 34.8552C2116.44 29.3887 2119.78 24.4369 2124 20.3001C2128.16 16.1161 2133.11 12.7959 2138.56 10.5303C2144.01 8.26466 2149.85 7.09832 2155.75 7.09832C2161.65 7.09832 2167.49 8.26466 2172.94 10.5303C2178.39 12.7959 2183.34 16.1161 2187.5 20.3001C2191.72 24.4369 2195.06 29.3887 2197.31 34.8552C2199.57 40.3216 2200.68 46.1886 2200.6 52.1001C2200.69 58.0427 2199.58 63.9428 2197.33 69.4432C2195.08 74.9435 2191.73 79.9298 2187.5 84.1001ZM2192.7 15.2001C2182.5 5.00007 2170.2 7.40089e-05 2155.7 7.40089e-05C2148.85 -0.100588 2142.06 1.19539 2135.73 3.80882C2129.41 6.42226 2123.68 10.2983 2118.9 15.2001C2113.97 19.9657 2110.08 25.689 2107.44 32.0177C2104.81 38.3465 2103.5 45.1468 2103.6 52.0001C2103.49 58.8762 2104.78 65.703 2107.39 72.0641C2110.01 78.4253 2113.89 84.1877 2118.8 89.0001C2123.64 93.883 2129.39 97.7592 2135.73 100.405C2142.07 103.05 2148.88 104.412 2155.75 104.412C2162.62 104.412 2169.43 103.05 2175.77 100.405C2182.11 97.7592 2187.86 93.883 2192.7 89.0001C2197.64 84.2012 2201.54 78.4436 2204.17 72.0808C2206.8 65.7181 2208.11 58.8845 2208 52.0001C2208.11 45.1441 2206.82 38.3381 2204.18 32.0067C2201.55 25.6752 2197.64 19.954 2192.7 15.2001Z" fill="white"/>
<path d="M2161.6 48.9C2159.7 49.7 2156.9 50 2153.1 50H2145V31.6H2152.7C2157.7 31.6 2161.3 32.2 2163.6 33.5C2165.9 34.8 2167 37.2 2167 41C2167.07 42.7229 2166.58 44.4228 2165.61 45.8464C2164.64 47.27 2163.23 48.3411 2161.6 48.9ZM2175.3 75.7C2174.99 74.8659 2174.83 73.9879 2174.8 73.1C2174.7 71.8 2174.7 70.5 2174.7 69.3V65.6C2174.62 62.7376 2173.64 59.9729 2171.9 57.7C2170.1 55 2167.2 53.4 2163.2 52.7C2165.79 52.4279 2168.29 51.5732 2170.5 50.2C2173.8 48.1 2175.5 44.7 2175.5 40.2C2175.5 33.8 2172.9 29.5 2167.6 27.3C2164.7 26.1 2160 25.5 2153.7 25.5H2136V76.4H2145V56.4H2152.1C2156.8 56.4 2160.2 57 2162.1 58C2165.3 59.9 2166.9 63.8 2166.9 69.6V73.6L2167.1 75.2L2167.2 75.8L2167.3 76.3H2175.7L2175.3 75.7Z" fill="white"/>
<path d="M1953.91 141.04L1953.81 140.95L1845.82 261.82V3.91992L1718.29 146.01V146.31L1563.19 320.17V508.48L1726.61 325.91V510.3L1784.91 510.24L1949.45 327.05V510.3L2076.99 510.24V3.91992L1953.91 141.04Z" fill="white"/>
<path d="M33 639.85H45.43L78.43 724.31H66L56.77 698.88H21.06L11.59 724.31H0L33 639.85ZM24.6 689.42H53.24L39.16 650H38.92L24.6 689.42Z" fill="white"/>
<path d="M187.94 663.15H197.41V676.05H197.65C202.5 666.23 209.24 661.38 220.12 661.73V672.38C203.92 672.38 198 681.61 198 697.1V724.31H187.94V663.15Z" fill="white"/>
<path d="M281.87 724.08C279.666 725.286 277.17 725.857 274.66 725.73C269.45 725.73 266.14 722.89 266.14 716.27C260.58 722.78 253.14 725.73 244.61 725.73C233.49 725.73 224.38 720.73 224.38 708.58C224.38 694.74 234.67 691.78 245.08 689.77C256.2 687.64 265.67 688.35 265.67 680.77C265.67 672.01 258.45 670.59 252.06 670.59C243.54 670.59 237.27 673.2 236.8 682.19H226.75C227.34 667.05 239.05 661.72 252.65 661.72C263.65 661.72 275.65 664.21 275.65 678.52V710C275.65 714.73 275.65 716.86 278.85 716.86C279.901 716.851 280.941 716.651 281.92 716.27L281.87 724.08ZM265.55 692.73C261.64 695.57 254.07 695.73 247.33 696.87C240.59 698.01 235.03 700.42 235.03 707.87C235.03 714.5 240.7 716.87 246.86 716.87C260.11 716.87 265.55 708.59 265.55 703.03V692.73Z" fill="white"/>
<path d="M291.22 663.15H300.68V672.85H300.92C305.17 665.28 312.04 661.73 320.79 661.73C336.88 661.73 341.85 670.96 341.85 684.09V724.31H331.79V682.91C331.79 675.46 327.06 670.6 319.37 670.6C307.19 670.6 301.27 678.77 301.27 689.77V724.31H291.27L291.22 663.15Z" fill="white"/>
<path d="M411.64 724.31H401.59V716H401.35C398.04 722.75 390.23 725.7 381.83 725.7C363.02 725.7 353.68 710.8 353.68 693.53C353.68 676.26 362.9 661.7 381.59 661.7C387.86 661.7 396.86 664.07 401.35 671.28H401.59V639.85H411.64V724.31ZM383.25 716.86C396.74 716.86 401.94 705.27 401.94 693.79C401.94 681.73 396.5 670.6 382.66 670.6C368.82 670.6 364.32 682.32 364.32 694.27C364.32 705.74 370.24 716.86 383.25 716.86Z" fill="white"/>
<path d="M486.4 661.73C505.8 661.73 516.1 675.81 516.1 693.79C516.1 711.77 505.8 725.73 486.4 725.73C467 725.73 456.71 711.66 456.71 693.79C456.71 675.92 467 661.73 486.4 661.73ZM486.4 716.86C496.93 716.86 505.45 708.58 505.45 693.79C505.45 679 496.93 670.6 486.4 670.6C475.87 670.6 467.4 678.89 467.4 693.79C467.4 708.69 475.87 716.86 486.4 716.86Z" fill="white"/>
<path d="M532.06 672H521.77V663.13H532.06V654C532.06 644.07 537.98 638.86 548.98 638.86C551.185 638.898 553.375 639.235 555.49 639.86V648.61C553.65 648.047 551.734 647.767 549.81 647.78C544.96 647.78 542.12 649.32 542.12 654.64V663.16H554V672H542.12V724.29H532.06V672Z" fill="white"/>
<path d="M597.48 639.85H628.12C635.57 639.85 645.39 639.85 650.48 642.92C653.552 644.713 656.091 647.291 657.838 650.389C659.585 653.487 660.476 656.994 660.42 660.55C660.42 669.55 655.68 676.28 647.88 679.48V679.71C658.29 681.84 663.96 689.65 663.96 700.06C663.96 712.48 655.09 724.31 638.29 724.31H597.48V639.85ZM608.72 676.16H631.2C643.97 676.16 649.2 671.55 649.2 662.68C649.2 650.97 640.92 649.31 631.2 649.31H608.72V676.16ZM608.72 714.85H636.87C646.57 714.85 652.73 708.94 652.73 699.71C652.73 688.71 643.85 685.63 634.39 685.63H608.72V714.85Z" fill="white"/>
<path d="M701.46 639.85H713.88L746.88 724.31H734.47L725.24 698.88H689.51L680.05 724.31H668.46L701.46 639.85ZM693.06 689.42H721.69L707.61 650H707.38L693.06 689.42Z" fill="white"/>
<path d="M804 664.57C802.69 652.5 794.65 647.3 783.06 647.3C773.59 647.3 764.13 650.73 764.13 661.73C764.13 672.14 777.61 673.68 791.22 676.73C804.83 679.78 818.22 684.53 818.22 701.1C818.22 719.1 800.59 726.3 785.22 726.3C766.29 726.3 750.32 717.07 750.32 696.48H761C761 710.68 772.83 716.83 785.61 716.83C795.78 716.83 807.02 713.64 807.02 701.45C807.02 689.86 793.54 687.85 780.02 684.89C766.5 681.93 752.93 678.03 752.93 662.53C752.93 645.38 768.19 637.81 783.57 637.81C800.84 637.81 813.97 645.97 814.68 664.54L804 664.57Z" fill="white"/>
<path d="M831.82 639.85H887.31V649.31H843.06V676.16H881.86V685.63H843.06V724.31H831.82V639.85Z" fill="white"/>
<path d="M929.3 686.69H963.49V696.16H929.3V686.69Z" fill="white"/>
<path d="M1087.82 724.31H1076.1L1056.82 653.31H1056.58L1037.07 724.31H1025.35L1003.7 639.85H1015.18L1031.74 710.12H1031.98L1050.91 639.85H1063.09L1081.78 710.12H1082.02L1099.17 639.85H1110.41L1087.82 724.31Z" fill="white"/>
<path d="M1164.83 704.91C1162.11 718.4 1152.4 725.73 1138.68 725.73C1119.16 725.73 1109.93 712.25 1109.34 693.56C1109.34 675.22 1121.41 661.73 1138.09 661.73C1159.74 661.73 1166.36 681.96 1165.77 696.73H1120C1119.65 707.38 1125.68 716.84 1139 716.84C1147.28 716.84 1153.07 712.84 1154.85 704.84L1164.83 704.91ZM1155.13 687.91C1154.65 678.32 1147.44 670.63 1137.5 670.63C1126.97 670.63 1120.7 678.56 1119.99 687.91H1155.13Z" fill="white"/>
<path d="M1250.59 682.79C1249.05 675.1 1243.73 670.6 1235.45 670.6C1220.9 670.6 1216.45 682.08 1216.45 694.5C1216.45 705.74 1221.54 716.86 1234.31 716.86C1244.01 716.86 1249.81 711.18 1251.11 701.96H1261.4C1259.16 716.86 1249.81 725.73 1234.4 725.73C1215.71 725.73 1205.77 712.73 1205.77 694.5C1205.77 676.27 1215.24 661.73 1234.64 661.73C1248.48 661.73 1259.64 668.24 1261.02 682.79H1250.59Z" fill="white"/>
<path d="M1272.23 663.15H1281.7V676.05H1281.93C1286.78 666.23 1293.53 661.38 1304.41 661.73V672.38C1288.2 672.38 1282.29 681.61 1282.29 697.1V724.31H1272.23V663.15Z" fill="white"/>
<path d="M1362 704.91C1359.28 718.4 1349.58 725.73 1335.86 725.73C1316.34 725.73 1307.11 712.25 1306.52 693.56C1306.52 675.22 1318.59 661.73 1335.27 661.73C1356.92 661.73 1363.54 681.96 1362.95 696.73H1317.17C1316.81 707.38 1322.85 716.84 1336.17 716.84C1344.46 716.84 1350.25 712.84 1352.03 704.84L1362 704.91ZM1352.3 687.91C1351.83 678.32 1344.61 670.63 1334.68 670.63C1324.15 670.63 1317.88 678.56 1317.17 687.91H1352.3Z" fill="white"/>
<path d="M1427.56 724.08C1425.35 725.286 1422.85 725.857 1420.34 725.73C1415.14 725.73 1411.82 722.89 1411.82 716.27C1406.26 722.78 1398.82 725.73 1390.29 725.73C1379.17 725.73 1370.06 720.73 1370.06 708.58C1370.06 694.74 1380.36 691.78 1390.77 689.77C1401.89 687.64 1411.35 688.35 1411.35 680.77C1411.35 672.01 1404.13 670.59 1397.75 670.59C1389.23 670.59 1382.96 673.2 1382.48 682.19H1372.48C1373.07 667.05 1384.78 661.72 1398.39 661.72C1409.39 661.72 1421.39 664.21 1421.39 678.52V710C1421.39 714.73 1421.39 716.86 1424.58 716.86C1425.63 716.851 1426.68 716.651 1427.66 716.27L1427.56 724.08ZM1411.23 692.73C1407.33 695.57 1399.76 695.73 1393.01 696.87C1386.26 698.01 1380.71 700.42 1380.71 707.87C1380.71 714.5 1386.39 716.87 1392.54 716.87C1405.79 716.87 1411.23 708.59 1411.23 703.03V692.73Z" fill="white"/>
<path d="M1450.86 663.15H1463V672H1450.82V710C1450.82 714.61 1452.12 715.44 1458.39 715.44H1463V724.31H1455.31C1444.9 724.31 1440.76 722.18 1440.76 710.95V672H1430.35V663.13H1440.76V644.82H1450.82L1450.86 663.15Z" fill="white"/>
<path d="M1526.33 704.91C1523.61 718.4 1513.91 725.73 1500.19 725.73C1480.67 725.73 1471.44 712.25 1470.85 693.56C1470.85 675.22 1482.91 661.73 1499.6 661.73C1521.24 661.73 1527.87 681.96 1527.28 696.73H1481.5C1481.14 707.38 1487.17 716.84 1500.5 716.84C1508.78 716.84 1514.58 712.84 1516.35 704.84L1526.33 704.91ZM1516.63 687.91C1516.16 678.32 1508.94 670.63 1499 670.63C1488.48 670.63 1482.21 678.56 1481.5 687.91H1516.63Z" fill="white"/>
<path d="M1612.09 682.79C1610.56 675.1 1605.23 670.6 1596.95 670.6C1582.4 670.6 1577.95 682.08 1577.95 694.5C1577.95 705.74 1583.03 716.86 1595.81 716.86C1605.51 716.86 1611.31 711.18 1612.61 701.96H1622.9C1620.65 716.86 1611.31 725.73 1595.9 725.73C1577.21 725.73 1567.27 712.73 1567.27 694.5C1567.27 676.27 1576.73 661.73 1596.13 661.73C1609.97 661.73 1621.13 668.24 1622.51 682.79H1612.09Z" fill="white"/>
<path d="M1634.09 639.85H1644.15V672.14H1644.39C1647.7 664.81 1656.33 661.73 1663.67 661.73C1679.76 661.73 1684.73 670.96 1684.73 684.09V724.31H1674.67V682.91C1674.67 675.46 1669.94 670.6 1662.25 670.6C1650.06 670.6 1644.15 678.77 1644.15 689.77V724.31H1634.09V639.85Z" fill="white"/>
<path d="M1752 704.91C1749.28 718.4 1739.58 725.73 1725.85 725.73C1706.33 725.73 1697.11 712.25 1696.51 693.56C1696.51 675.22 1708.58 661.73 1725.26 661.73C1746.91 661.73 1753.54 681.96 1752.94 696.73H1707.2C1706.85 707.38 1712.88 716.84 1726.2 716.84C1734.48 716.84 1740.28 712.84 1742.05 704.84L1752 704.91ZM1742.3 687.91C1741.82 678.32 1734.61 670.63 1724.67 670.63C1714.14 670.63 1707.87 678.56 1707.16 687.91H1742.3Z" fill="white"/>
<path d="M1763.39 663.15H1772.85V672.15H1773.09C1777.59 665.29 1784.45 661.74 1792.85 661.74C1800.3 661.74 1807.16 664.74 1809.65 672.15C1811.71 668.942 1814.54 666.305 1817.89 664.485C1821.24 662.665 1825 661.721 1828.81 661.74C1841 661.74 1849.16 666.83 1849.16 679.49V724.32H1839.1V684.22C1839.1 676.65 1837.1 670.61 1827.27 670.61C1817.44 670.61 1811.27 676.77 1811.27 686.23V724.32H1801.27V684.22C1801.27 676.29 1798.78 670.61 1789.79 670.61C1777.79 670.61 1773.47 681.61 1773.47 686.23V724.32H1763.41L1763.39 663.15Z" fill="white"/>
<path d="M1874.94 652.15H1864.94V639.85H1874.94V652.15ZM1864.94 663.15H1874.94V724.31H1864.94V663.15Z" fill="white"/>
<path d="M1896.71 705C1897.06 714 1904.87 716.83 1913.15 716.83C1919.42 716.83 1927.94 715.41 1927.94 707.72C1927.94 700.03 1918 698.61 1907.94 696.37C1897.88 694.13 1887.94 690.8 1887.94 679.09C1887.94 666.79 1900.13 661.7 1910.78 661.7C1924.26 661.7 1935.03 665.96 1935.86 680.87H1925.8C1925.09 673.06 1918.23 670.57 1911.6 670.57C1905.6 670.57 1898.6 672.23 1898.6 678.38C1898.6 685.6 1909.25 686.78 1918.6 689.03C1928.66 691.28 1938.6 694.59 1938.6 706.42C1938.6 720.97 1924.99 725.7 1912.6 725.7C1898.88 725.7 1887.28 720.14 1886.69 705H1896.71Z" fill="white"/>
<path d="M1963.66 663.15H1975.85V672H1963.66V710C1963.66 714.61 1964.97 715.44 1971.24 715.44H1975.85V724.31H1968.16C1957.75 724.31 1953.61 722.18 1953.61 710.95V672H1943.2V663.13H1953.61V644.82H1963.66V663.15Z" fill="white"/>
<path d="M1986.61 663.15H1996.07V676.05H1996.31C2001.16 666.23 2007.91 661.38 2018.79 661.73V672.38C2002.58 672.38 1996.67 681.61 1996.67 697.1V724.31H1986.61V663.15Z" fill="white"/>
<path d="M2050.37 732.48C2045.76 744.43 2041.62 748.8 2032.63 748.8C2030.25 748.867 2027.88 748.508 2025.63 747.74V738.51C2027.52 739.1 2029.53 739.93 2031.54 739.93C2035.68 739.93 2037.93 737.93 2039.82 734.37L2044 724L2019.75 663.19H2031.11L2048.97 713.19H2049.21L2066.36 663.19H2077L2050.37 732.48Z" fill="white"/>
<path d="M118.46 639.85H128.52V671.43H128.75C132.07 664.69 139.75 661.73 148.27 661.73C167.08 661.73 176.43 676.64 176.43 693.91C176.43 711.18 167.2 725.73 148.51 725.73C142.36 725.73 133.13 723.37 128.75 716.15H128.52V724.31H118.46V639.85ZM146.85 670.61C133.25 670.61 128.16 682.32 128.16 693.67C128.16 705.67 133.6 716.86 147.45 716.86C161.3 716.86 165.78 705.15 165.78 693.2C165.78 681.73 159.87 670.61 146.85 670.61Z" fill="white"/>
</g>
<defs>
<clipPath id="clip0_129_152">
<rect width="2208" height="748.8" fill="white"/>
</clipPath>
</defs>
</svg>
