<svg width="90" height="22" viewBox="0 0 90 22" fill="none" xmlns="http://www.w3.org/2000/svg">
<g clip-path="url(#clip0_775_10959)">
<path d="M11.0462 13.298C11.0462 13.298 14.9715 12.064 14.9511 7.3722C14.9348 3.30733 12.0897 0.90625 6.56658 0.90625H4.18573L0.0692935 5.34173H7.56685C8.72038 5.36539 10.0818 5.4403 10.0818 7.455C10.0818 9.44998 8.53696 9.39084 7.33859 9.42238C6.60489 9.44209 5.20109 9.41055 5.20109 9.41055V6.59983H0V20.1188H5.20109V14.3152L11.1424 20.1188L17.636 20.1216L11.0462 13.298Z" fill="white" fill-opacity="0.8"/>
<path d="M26.0607 15.8207C24.9757 15.8207 23.915 15.5094 23.0128 14.9264C22.1107 14.3433 21.4075 13.5145 20.9923 12.5449C20.5771 11.5753 20.4684 10.5084 20.6801 9.47902C20.8918 8.44967 21.4143 7.50416 22.1815 6.76204C22.9487 6.01993 23.9262 5.51454 24.9904 5.30979C26.0546 5.10504 27.1577 5.21013 28.1601 5.61176C29.1625 6.01339 30.0193 6.69352 30.6221 7.56616C31.2249 8.4388 31.5467 9.46474 31.5467 10.5142C31.5464 11.9215 30.9683 13.271 29.9395 14.2661C28.9108 15.2612 27.5156 15.8203 26.0607 15.8207ZM26.0607 0.636719C20.4214 0.636719 15.8525 5.05564 15.8525 10.5107C15.8525 15.9658 20.4214 20.3847 26.0607 20.3847C31.7 20.3847 36.2688 15.9614 36.2688 10.5107C36.2688 5.05998 31.7004 0.636719 26.0607 0.636719Z" fill="white" fill-opacity="0.8"/>
<path d="M45.361 0.90625C45.1136 0.90625 44.8519 0.90625 44.613 0.908221V0.90625H41.6432L37.5483 5.32439V20.1188H42.7401V10.1364H42.7433V5.33503C42.7433 5.33503 43.5206 5.33503 44.2462 5.34292V5.33937H45.2305C47.5095 5.33937 50.9371 5.79553 50.9371 10.6198C50.9371 15.2149 47.4553 15.6518 45.2305 15.6518C44.8515 15.6518 44.3338 15.6537 44.0534 15.6518V20.1109C44.3713 20.1133 44.8918 20.1164 45.3577 20.1164C50.0232 20.1164 55.6861 18.6707 55.6861 10.52C55.6894 2.43324 50.0444 0.90625 45.361 0.90625Z" fill="white" fill-opacity="0.8"/>
<path d="M56.9292 5.75836V20.1211L62.1278 20.1187V0.15625L56.9292 5.75836Z" fill="white" fill-opacity="0.8"/>
<path d="M89.1642 3.31599C88.9942 3.48097 88.7922 3.61187 88.5698 3.70119C88.3473 3.79051 88.1089 3.83649 87.868 3.83649C87.6272 3.83649 87.3887 3.79051 87.1663 3.70119C86.9439 3.61187 86.7419 3.48097 86.5718 3.31599C86.3998 3.15136 86.2641 2.95464 86.173 2.73776C86.0819 2.52089 86.0374 2.28838 86.042 2.05434C86.0385 1.82127 86.0841 1.58995 86.1759 1.37443C86.2677 1.15891 86.4038 0.963672 86.5759 0.800573C86.7455 0.635614 86.9472 0.504709 87.1693 0.415384C87.3914 0.326058 87.6296 0.280074 87.8701 0.280074C88.1106 0.280074 88.3488 0.326058 88.5709 0.415384C88.793 0.504709 88.9946 0.635614 89.1642 0.800573C89.3364 0.963672 89.4725 1.15891 89.5643 1.37443C89.6561 1.58995 89.7017 1.82127 89.6982 2.05434C89.7021 2.28863 89.6567 2.52125 89.565 2.73811C89.4732 2.95497 89.3369 3.15156 89.1642 3.31599ZM89.3762 0.599498C88.9604 0.197347 88.4591 0.000214681 87.868 0.000214681C87.589 -0.00375408 87.3121 0.0473418 87.0542 0.15038C86.7963 0.253419 86.5628 0.406237 86.368 0.599498C86.1673 0.787388 86.0083 1.01304 85.9011 1.26256C85.7938 1.51208 85.7405 1.78019 85.7444 2.05039C85.7399 2.3215 85.7925 2.59065 85.899 2.84145C86.0055 3.09225 86.1637 3.31944 86.364 3.50918C86.5611 3.70169 86.7956 3.85452 87.0542 3.95881C87.3127 4.06311 87.59 4.11681 87.8701 4.11681C88.1502 4.11681 88.4275 4.06311 88.686 3.95881C88.9445 3.85452 89.1791 3.70169 89.3762 3.50918C89.5775 3.31997 89.7366 3.09297 89.8438 2.84211C89.9511 2.59125 90.0042 2.32182 89.9998 2.05039C90.0045 1.78009 89.9515 1.51175 89.8442 1.26212C89.7369 1.01249 89.5776 0.78693 89.3762 0.599498Z" fill="white" fill-opacity="0.8"/>
<path d="M88.1089 1.92649C88.0315 1.95803 87.9173 1.96986 87.7624 1.96986H87.4323V1.24441H87.7461C87.9499 1.24441 88.0967 1.26806 88.1904 1.31932C88.2842 1.37057 88.329 1.4652 88.329 1.61502C88.3319 1.68295 88.3121 1.74997 88.2724 1.80609C88.2327 1.86222 88.1754 1.90445 88.1089 1.92649ZM88.6673 2.98312C88.6549 2.95023 88.648 2.91562 88.647 2.88061C88.6429 2.82935 88.6429 2.7781 88.6429 2.73079V2.58491C88.6397 2.47205 88.5997 2.36305 88.5287 2.27344C88.4554 2.16699 88.3372 2.10391 88.1741 2.07631C88.2797 2.06558 88.3814 2.03188 88.4717 1.97774C88.6062 1.89495 88.6755 1.7609 88.6755 1.58348C88.6755 1.33115 88.5695 1.16161 88.3535 1.07487C88.2353 1.02756 88.0437 1.00391 87.7869 1.00391H87.0654V3.01072H87.4323V2.22219H87.7217C87.9133 2.22219 88.0518 2.24584 88.1293 2.28527C88.2597 2.36018 88.3249 2.51394 88.3249 2.74262V2.90032L88.3331 2.9634L88.3372 2.98706L88.3412 3.00677H88.6836L88.6673 2.98312Z" fill="white" fill-opacity="0.8"/>
<path d="M79.6429 5.56241L79.6388 5.55887L75.237 10.3244V0.15625L70.0388 5.75836V5.77019L63.7168 12.6249V20.0493L70.3779 12.8512V20.1211L72.7543 20.1187L79.4611 12.8961V20.1211L84.6597 20.1187V0.15625L79.6429 5.56241Z" fill="white" fill-opacity="0.8"/>
</g>
<defs>
<clipPath id="clip0_775_10959">
<rect width="90" height="22" fill="white"/>
</clipPath>
</defs>
</svg>
